# xmcd CD database file
# Copyright (C) 1997 Ti Kan
# 
# Track frame offsets:
#     182
#     14217
#     26800
#     39800
#     54480
#     68577
#     82050
#     95157
#     109465
#     122275
#     134815
#     147582
#     160847
#     174787
#     188790
#     203342
#     216150
#     231552
#     243805
#     258000
#     272830
#     287160
#     301617
# 
# Disc length: 4214 seconds
# 
# Revision: 1
# Processed by: cddbd v1.4b41PL1 Copyright (c) Steve Scherf et al.
# Submitted via: DiscPlay 4.0.3
# 
DISCID=4b107417
DTITLE=Gertrude "Ma" Rainey - The Complete Gertrude "Ma" Rainey Collection 1
DTITLE=923/28 Vol. 1 1923/24
DYEAR=1900
DGENRE=
TTITLE0=Bad Luck Blues
TTITLE1=Bo-Weevil Blues
TTITLE2=Barrel House Blues
TTITLE3=Those All Night Long Blues
TTITLE4=Moonshine Blues
TTITLE5=Lost Minute Blues
TTITLE6=Southern Blues
TTITLE7=Walking Blues
TTITLE8=Last Wandering Blues
TTITLE9=Dream Blues
TTITLE10=Honey Where You Been So Long?
TTITLE11=Ya-Da-Do
TTITLE12=Those Dogs Of Mine
TTITLE13=Lucky Rock Blues
TTITLE14=South Bound Blues
TTITLE15=Lawd Send Me A Man Blues
TTITLE16=Ma Rainey's Mystery Record
TTITLE17=Shave 'Em Dry Blues
TTITLE18=Farewell Daddy Blues
TTITLE19=Booze And Blues
TTITLE20=Toad Frog Blues
TTITLE21=Jealous Hearted Blues
TTITLE22=See See Rider Blues
EXTD=
EXTT0=
EXTT1=
EXTT2=
EXTT3=
EXTT4=
EXTT5=
EXTT6=
EXTT7=
EXTT8=
EXTT9=
EXTT10=
EXTT11=
EXTT12=
EXTT13=
EXTT14=
EXTT15=
EXTT16=
EXTT17=
EXTT18=
EXTT19=
EXTT20=
EXTT21=
EXTT22=
PLAYORDER=
